<svg xmlns="http://www.w3.org/2000/svg" height="150" viewBox="0 0 200 200" width="150">
    <g fill="#2883ae" transform="matrix(5.9066253,0,0,5.9066253,7.0710682,31.803006)">
        <path d="M30.22,3.037v-1.982l-0.285-0.112c-0.099-0.039-2.428-0.943-5.535-0.943-3.328,0-6.194,1.014-8.527,3.014-2.332-2-5.199-3.014-8.527-3.014-3.107,0-5.436,0.904-5.533,0.943l-0.287,0.112v1.836c-0.94,0.176-1.526,0.491-1.526,1.005v18.918h13.934c0.482,0.431,1.187,0.704,1.975,0.704,0.789,0,1.493-0.273,1.975-0.704h13.582v-18.918c-0.001-0.418-0.476-0.691-1.246-0.859zm-14.497,18.285c-1.156-0.478-5.14-1.992-9.13-1.992-1.577,0-2.974,0.242-4.163,0.72v-18.369c0.694-0.232,2.586-0.779,4.916-0.779,3.064,0,5.697,0.927,7.847,2.733v10.965l0.53-0.585v7.307zm13.594-1.268c-1.278-0.513-2.745-0.772-4.37-0.772-3.988,0-7.783,1.528-8.925,2.031v-7.299l0.532,0.585v-10.964c2.15-1.807,4.783-2.733,7.846-2.733,2.322,0,4.221,0.548,4.917,0.779v18.373z"/>
        <path d="m4.217,4.097,0.187,0.707c4.705-1.248,8.938,1.062,8.981,1.085l0.355-0.639c-0.181-0.101-4.528-2.477-9.523-1.153z"/>
        <path d="m4.217,6.167,0.187,0.707c4.705-1.249,8.938,1.061,8.981,1.084l0.355-0.638c-0.181-0.102-4.528-2.477-9.523-1.153z"/>
        <path d="m4.217,8.112,0.187,0.707c4.705-1.247,8.938,1.062,8.981,1.085l0.355-0.639c-0.181-0.101-4.528-2.476-9.523-1.153z"/>
        <path d="m4.217,10.244,0.187,0.707c4.705-1.248,8.938,1.062,8.981,1.085l0.355-0.638c-0.181-0.103-4.528-2.479-9.523-1.154z"/>
        <path d="m4.217,12.219,0.187,0.707c4.705-1.247,8.938,1.062,8.981,1.086l0.355-0.64c-0.181-0.101-4.528-2.476-9.523-1.153z"/>
        <path d="m4.217,14.248,0.187,0.707c4.705-1.248,8.938,1.061,8.981,1.084l0.355-0.638c-0.181-0.102-4.528-2.476-9.523-1.153z"/>
        <path d="m4.217,16.283,0.187,0.706c4.705-1.248,8.938,1.062,8.981,1.085l0.355-0.637c-0.181-0.103-4.528-2.479-9.523-1.154z"/>
        <path d="M18.578,5.943c0.043-0.023,4.275-2.332,8.981-1.085l0.187-0.707c-4.996-1.323-9.341,1.053-9.523,1.154l0.355,0.638z"/>
        <path d="m18.223,7.375,0.355,0.638c0.043-0.023,4.275-2.333,8.981-1.084l0.187-0.708c-4.996-1.324-9.341,1.051-9.523,1.154z"/>
        <path d="m18.223,9.319,0.355,0.639c0.043-0.024,4.275-2.333,8.981-1.086l0.187-0.707c-4.996-1.322-9.341,1.053-9.523,1.154z"/>
        <path d="m18.223,11.452,0.355,0.638c0.043-0.023,4.275-2.332,8.981-1.084l0.187-0.707c-4.996-1.326-9.341,1.05-9.523,1.153z"/>
        <path d="m18.223,13.427,0.355,0.639c0.043-0.023,4.275-2.332,8.981-1.085l0.187-0.708c-4.996-1.322-9.341,1.052-9.523,1.154z"/>
        <path d="m18.223,15.456,0.355,0.638c0.043-0.023,4.275-2.332,8.981-1.084l0.187-0.707c-4.996-1.324-9.341,1.051-9.523,1.153z"/>
        <path d="m18.223,17.49,0.355,0.637c0.043-0.022,4.275-2.333,8.981-1.084l0.187-0.707c-4.996-1.324-9.341,1.052-9.523,1.154z"/>
    </g>
</svg>