<svg xmlns="http://www.w3.org/2000/svg" width="150" height="150" viewBox="0 0 200 200">
    <path fill="#62b551" d="M 188.24411,61.901526 176.4554,50.575166 114.40663,115.15731 c -1.54301,1.60867 -3.67695,2.5197 -5.90666,2.52244 -0.003,0 -0.009,0 -0.0109,0 -2.22698,0 -4.35819,-0.90556 -5.90394,-2.50603 L 70.236569,81.66794 24.156887,130.17157 c -1.611407,1.69896 -3.780925,2.55527 -5.950443,2.55527 -2.029991,0 -4.062717,-0.74688 -5.652237,-2.25706 -3.2857394,-3.12159 -3.4197948,-8.31694 -0.295471,-11.60268 L 64.239617,64.150383 c 1.540276,-1.62235 3.6797,-2.547063 5.917613,-2.55527 0.01094,0 0.02189,0 0.03283,0 2.226971,0 4.358187,0.905561 5.903935,2.506025 L 108.47535,97.642488 164.6229,39.205032 152.83419,27.878671 200,14.22959 188.24411,61.901526 z M 18.206444,143.67019 c -1.887727,0 -3.720737,-0.27358 -5.471672,-0.7934 v 45.93469 h 24.622522 v -56.65916 l -5.280162,5.55375 c -3.583946,3.80281 -8.645242,5.96412 -13.870688,5.96412 z m 24.622522,45.14129 H 67.451488 V 100.47134 L 42.828966,126.3797 v 62.43178 z M 94.727774,122.7684 72.923161,100.19776 v 88.61372 h 24.622522 v -63.63554 c -1.012263,-0.71132 -1.942446,-1.50472 -2.817909,-2.40754 z m 13.788616,5.85469 c -1.88773,0 -3.72074,-0.27358 -5.49904,-0.82075 v 61.00914 h 24.62253 v -71.62419 l -5.33488,5.55375 c -3.58395,3.72074 -8.61789,5.88205 -13.78861,5.88205 z m 24.59515,-17.12633 v 77.31472 h 24.62253 V 85.861976 L 133.11154,111.49676 z M 176.77549,66.054525 163.20574,80.171437 V 188.81148 h 24.62253 V 76.669568 L 176.77549,66.054525 z"/>
</svg>