<svg xmlns="http://www.w3.org/2000/svg" width="150" height="150" viewBox="0 0 200 200">
    <g fill="#2883ae" transform="matrix(6.4343854,0,0,6.4343854,-61.149375,-60.856417)">
	    <path d="m 33.648,34.607 -2.033,-0.428 c 0.385,-0.371 0.676,-0.883 0.873,-1.4 0.25,-0.091 0.502,-0.314 0.578,-0.607 0.096,-0.387 -0.006,-0.733 -0.248,-0.883 v -0.273 c 0.219,-0.662 0.336,-1.743 -0.662,-2.325 -0.445,-0.261 -0.816,-0.276 -1.096,-0.187 -0.043,-0.113 0.088,-0.276 0.088,-0.276 -0.23,-0.009 -0.354,0.114 -0.402,0.183 -0.307,-0.142 -0.709,-0.201 -1.223,-0.093 -1.646,0.347 -1.857,2.503 -1.557,2.978 -0.234,0.15 -0.336,0.494 -0.236,0.877 0.07,0.295 0.326,0.52 0.58,0.611 0.191,0.516 0.48,1.03 0.863,1.399 l -2.027,0.427 c -0.406,0.087 -0.781,0.473 -0.854,0.881 l -0.273,1.534 c -0.039,0.212 0.014,0.416 0.143,0.569 0.129,0.154 0.32,0.238 0.535,0.238 h 7.398 c 0.217,0 0.408,-0.084 0.535,-0.238 0.131,-0.153 0.182,-0.356 0.141,-0.569 l -0.27,-1.536 C 34.432,35.08 34.055,34.694 33.648,34.607 z m -5.076,-2.135 c -0.135,0.03 -0.443,-0.14 -0.506,-0.384 -0.062,-0.25 -0.002,-0.483 0.133,-0.521 0.041,-0.012 0.084,-0.003 0.125,0.02 v -0.373 l 0.002,-0.002 c 0,-0.006 -0.002,-0.012 -0.002,-0.02 v -0.127 c 0.033,-0.316 0.332,-0.917 1.979,-0.377 0.564,0.186 0.916,-0.107 1.094,-0.499 0.559,0.062 0.932,0.696 1.072,1.088 v 0.31 c 0.021,-0.012 0.043,-0.02 0.062,-0.022 0,0.003 0,0.008 -0.002,0.011 0.006,0.004 0.014,0 0.025,-0.011 0.012,0 0.025,-0.001 0.037,0.002 0.137,0.037 0.195,0.271 0.135,0.521 -0.062,0.242 -0.367,0.41 -0.5,0.385 -0.182,0.542 -0.535,1.234 -1.041,1.617 -0.061,0.047 -0.123,0.084 -0.189,0.123 -0.092,0.049 -0.186,0.092 -0.289,0.117 -0.1,0.028 -0.201,0.045 -0.311,0.045 -0.11,0 -0.215,-0.017 -0.314,-0.045 C 29.98,34.305 29.885,34.264 29.791,34.213 29.729,34.176 29.662,34.137 29.603,34.09 29.1,33.713 28.75,33.026 28.572,32.472 z m 0.916,1.965 c 0.27,0.181 0.572,0.288 0.908,0.288 0.334,0 0.637,-0.109 0.902,-0.289 l 0.486,0.104 c -0.391,0.315 -0.867,0.488 -1.379,0.488 -0.504,0 -0.99,-0.178 -1.379,-0.494 l 0.462,-0.097 z m -1.351,3.08 h -1.438 c -0.123,0 -0.227,-0.045 -0.295,-0.126 -0.055,-0.066 -0.072,-0.15 -0.072,-0.241 h 1.805 v 0.367 l 0,0 z m 4.365,-1.058 c -0.088,0 -0.158,0.07 -0.158,0.158 v 0.898 h -3.893 v -0.896 c 0,-0.088 -0.07,-0.158 -0.158,-0.158 -0.088,0 -0.156,0.07 -0.156,0.158 v 0.215 h -1.762 l 0.229,-1.289 c 0.049,-0.282 0.328,-0.57 0.607,-0.629 l 1.438,-0.304 c 0.465,0.464 1.098,0.728 1.76,0.728 0.668,0 1.287,-0.258 1.758,-0.725 l 1.416,0.299 c 0.281,0.06 0.561,0.348 0.609,0.629 l 0.229,1.291 h -1.762 v -0.215 c -10e-4,-0.09 -0.071,-0.16 -0.157,-0.16 z m 1.891,0.932 c -0.07,0.081 -0.174,0.126 -0.295,0.126 h -1.439 v -0.368 h 1.805 c -10e-4,0.091 -0.021,0.175 -0.071,0.242 z M 20.406,23.338 18.92,23.025 c 0.281,-0.271 0.494,-0.646 0.639,-1.024 0.183,-0.066 0.367,-0.23 0.422,-0.444 0.07,-0.282 -0.004,-0.536 -0.18,-0.646 v -0.199 c 0.158,-0.484 0.244,-1.274 -0.484,-1.7 -0.326,-0.19 -0.598,-0.203 -0.801,-0.136 -0.031,-0.083 0.062,-0.203 0.062,-0.203 -0.168,-0.007 -0.256,0.083 -0.294,0.134 -0.224,-0.104 -0.519,-0.147 -0.894,-0.068 -1.203,0.252 -1.359,1.83 -1.139,2.176 -0.171,0.11 -0.245,0.362 -0.174,0.642 0.054,0.215 0.238,0.379 0.425,0.446 0.142,0.376 0.353,0.753 0.632,1.023 l -1.482,0.312 c -0.297,0.064 -0.57,0.346 -0.621,0.645 l -0.203,1.122 c -0.027,0.155 0.011,0.304 0.105,0.416 0.096,0.113 0.233,0.175 0.391,0.175 h 5.41 c 0.156,0 0.297,-0.062 0.391,-0.175 0.096,-0.112 0.133,-0.261 0.104,-0.416 L 21.03,23.984 c -0.052,-0.298 -0.327,-0.582 -0.624,-0.646 z m -3.711,-1.561 c -0.098,0.022 -0.323,-0.102 -0.369,-0.281 -0.045,-0.182 -0.002,-0.354 0.098,-0.38 0.029,-0.009 0.061,-0.002 0.092,0.014 v -0.273 c 0,0 0,-10e-4 0,-0.002 0,-0.004 0,-0.009 0,-0.013 v -0.094 c 0.022,-0.231 0.241,-0.67 1.445,-0.275 0.413,0.136 0.669,-0.079 0.799,-0.364 0.408,0.045 0.682,0.51 0.784,0.795 v 0.227 c 0.017,-0.008 0.031,-0.015 0.046,-0.017 0,0.002 0,0.006 -0.001,0.007 0.003,0.003 0.011,0.001 0.019,-0.007 0.01,0 0.02,-0.001 0.027,0.002 0.1,0.027 0.143,0.198 0.098,0.38 -0.045,0.177 -0.269,0.3 -0.365,0.281 -0.133,0.396 -0.393,0.903 -0.76,1.183 -0.045,0.034 -0.092,0.062 -0.141,0.089 -0.066,0.037 -0.136,0.067 -0.211,0.086 -0.072,0.021 -0.146,0.033 -0.229,0.033 -0.078,0 -0.155,-0.012 -0.229,-0.033 -0.074,-0.019 -0.146,-0.049 -0.213,-0.086 -0.048,-0.026 -0.096,-0.055 -0.139,-0.088 -0.366,-0.276 -0.621,-0.777 -0.751,-1.184 z m 0.67,1.436 c 0.197,0.131 0.418,0.21 0.662,0.21 0.246,0 0.467,-0.08 0.662,-0.21 l 0.354,0.075 c -0.284,0.231 -0.634,0.357 -1.008,0.357 -0.369,0 -0.724,-0.13 -1.007,-0.361 l 0.337,-0.071 z m -0.989,2.252 h -1.053 c -0.09,0 -0.164,-0.033 -0.215,-0.091 -0.041,-0.049 -0.053,-0.11 -0.053,-0.177 h 1.319 l 0.002,0.268 0,0 z m 3.19,-0.772 c -0.062,0 -0.114,0.051 -0.114,0.115 v 0.657 h -2.847 v -0.657 c 0,-0.064 -0.051,-0.115 -0.114,-0.115 -0.063,0 -0.114,0.051 -0.114,0.115 v 0.159 h -1.288 l 0.168,-0.943 c 0.035,-0.206 0.24,-0.417 0.444,-0.459 l 1.049,-0.222 c 0.341,0.338 0.804,0.532 1.287,0.532 0.488,0 0.941,-0.188 1.285,-0.529 l 1.035,0.219 c 0.205,0.043 0.408,0.253 0.445,0.459 l 0.167,0.943 h -1.288 v -0.159 c 0.002,-0.063 -0.052,-0.115 -0.115,-0.115 z m 1.383,0.682 c -0.051,0.059 -0.127,0.091 -0.215,0.091 H 19.681 V 25.198 H 21 c 0.001,0.067 -0.012,0.127 -0.051,0.177 z m 5.676,-9.352 h 4.184 c 0.119,0 0.229,-0.048 0.301,-0.135 0.074,-0.086 0.104,-0.201 0.082,-0.322 L 31.036,14.7 c -0.037,-0.231 -0.252,-0.449 -0.479,-0.498 l -1.15,-0.242 c 0.219,-0.209 0.383,-0.499 0.494,-0.792 0.141,-0.052 0.283,-0.178 0.326,-0.344 0.055,-0.218 -0.004,-0.414 -0.141,-0.499 v -0.154 c 0.123,-0.375 0.189,-0.985 -0.373,-1.314 -0.254,-0.147 -0.463,-0.157 -0.619,-0.105 -0.025,-0.064 0.049,-0.157 0.049,-0.157 -0.131,-0.005 -0.197,0.064 -0.229,0.103 -0.172,-0.08 -0.4,-0.113 -0.688,-0.053 -0.934,0.196 -1.053,1.415 -0.883,1.682 -0.131,0.085 -0.189,0.279 -0.135,0.496 0.041,0.166 0.188,0.293 0.328,0.345 0.109,0.291 0.273,0.583 0.49,0.791 l -1.148,0.242 C 26.65,14.25 26.439,14.468 26.4,14.7 l -0.156,0.867 c -0.021,0.12 0.008,0.235 0.082,0.321 0.072,0.088 0.178,0.135 0.299,0.135 z m 4.35,-0.249 c -0.039,0.045 -0.1,0.071 -0.166,0.071 h -0.814 v -0.207 h 1.021 c 0,0.051 -0.012,0.098 -0.041,0.136 z m -3.289,-2.779 c -0.076,0.017 -0.25,-0.079 -0.285,-0.217 -0.035,-0.141 -0.002,-0.273 0.076,-0.294 0.021,-0.007 0.047,-0.002 0.068,0.011 v -0.211 -0.001 c 0,-0.003 0,-0.007 0,-0.01 V 12.2 c 0.02,-0.178 0.189,-0.518 1.119,-0.212 0.318,0.105 0.518,-0.061 0.617,-0.282 0.314,0.035 0.527,0.394 0.605,0.615 v 0.175 c 0.014,-0.006 0.023,-0.011 0.035,-0.013 0,0.002 0,0.005 -0.002,0.005 0.004,0.003 0.008,0.001 0.016,-0.005 0.008,0 0.016,0 0.021,0.002 0.076,0.021 0.109,0.153 0.074,0.294 -0.035,0.137 -0.207,0.232 -0.283,0.217 -0.102,0.307 -0.303,0.698 -0.586,0.915 -0.035,0.026 -0.07,0.048 -0.107,0.069 -0.053,0.028 -0.105,0.052 -0.162,0.067 -0.059,0.016 -0.115,0.025 -0.178,0.025 -0.061,0 -0.119,-0.009 -0.176,-0.025 C 28.479,14.032 28.425,14.009 28.372,13.98 28.335,13.96 28.3,13.938 28.267,13.912 27.982,13.695 27.785,13.309 27.686,12.995 z m 0.517,1.11 c 0.152,0.102 0.322,0.162 0.512,0.162 0.191,0 0.361,-0.062 0.514,-0.163 l 0.273,0.058 c -0.221,0.179 -0.49,0.276 -0.779,0.276 -0.285,0 -0.561,-0.101 -0.777,-0.279 l 0.257,-0.054 z m -1.631,0.626 c 0.029,-0.159 0.188,-0.322 0.344,-0.355 l 0.812,-0.172 c 0.264,0.262 0.621,0.411 0.994,0.411 0.379,0 0.729,-0.145 0.994,-0.409 l 0.799,0.169 c 0.16,0.033 0.316,0.196 0.346,0.355 l 0.129,0.729 h -0.996 v -0.123 c 0,-0.049 -0.039,-0.089 -0.088,-0.089 -0.049,0 -0.09,0.04 -0.09,0.089 v 0.508 h -2.199 v -0.508 c 0,-0.049 -0.039,-0.089 -0.09,-0.089 -0.047,0 -0.088,0.04 -0.088,0.089 v 0.123 h -0.996 l 0.129,-0.728 z m 0.867,0.908 v 0.207 h -0.812 c -0.068,0 -0.127,-0.025 -0.166,-0.071 C 26.43,15.737 26.42,15.69 26.42,15.639 h 1.019 z m 2.772,9.922 c -2.191,0 -4.158,0.952 -5.53,2.456 l -2.44,-1.974 c 0.823,-0.979 1.321,-2.242 1.321,-3.619 0,-1.534 -0.617,-2.925 -1.615,-3.941 1.455,-1.1 2.996,-2.23 3.332,-2.418 0.758,1.062 1.995,1.762 3.399,1.762 2.307,0 4.184,-1.877 4.184,-4.184 0,-2.308 -1.877,-4.185 -4.184,-4.185 -2.309,0 -4.186,1.877 -4.186,4.185 0,0.728 0.205,1.402 0.531,1.999 -0.603,0.359 -2.57,1.837 -3.447,2.498 -0.982,-0.837 -2.254,-1.346 -3.643,-1.346 -3.105,0 -5.632,2.526 -5.632,5.63 0,3.104 2.525,5.631 5.632,5.631 1.512,0 2.885,-0.604 3.897,-1.578 l -0.146,0.181 2.472,2 c -0.898,1.234 -1.438,2.75 -1.438,4.393 0,4.131 3.362,7.49 7.491,7.49 4.131,0 7.49,-3.359 7.49,-7.49 0.002,-4.131 -3.357,-7.49 -7.488,-7.49 z M 24.955,13.644 c 0,-2.053 1.67,-3.722 3.723,-3.722 2.053,0 3.722,1.668 3.722,3.722 0,2.052 -1.67,3.722 -3.723,3.722 -2.053,0 -3.722,-1.671 -3.722,-3.722 z m -7.022,13.79 c -2.764,0 -5.01,-2.247 -5.01,-5.009 0,-2.762 2.246,-5.009 5.01,-5.009 2.762,0 5.008,2.247 5.008,5.009 0,2.762 -2.246,5.009 -5.008,5.009 z m 12.278,12.281 c -3.674,0 -6.663,-2.989 -6.663,-6.664 0,-3.676 2.989,-6.664 6.663,-6.664 3.674,0 6.664,2.988 6.664,6.664 0,3.675 -2.99,6.664 -6.664,6.664 z"/>
    </g>
</svg>