<svg xmlns="http://www.w3.org/2000/svg" viewBox="0 0 200 200" width="150" height="150">
    <g transform="matrix(7.8527608,0,0,7.8527608,-236.47853,13.496933)">
        <path fill="#2883ae" d="m35-1.7188c-2.598,0-2.5938,2.4062-2.5938,2.4062v22.156c0,0.508,0.39325,0.90625,0.90625,0.90625h16.625c0.508,0,0.90625-0.39825,0.90625-0.90625h1.5c0.994,0.001,0.90625-1,0.90625-1v-17.625l-0.53125-0.28125-0.90625,0.46875v17s-0.17875,0.59375-0.96875,0.59375v-7.1875-9.875l-0.781,0.4068,0.532-2.9688-1.719-1.6562h-14.656c0-0.634,0.9375-0.96875,0.9375-0.96875h15.688c0.2455,0,0.42703,0.043906,0.5625,0.125l0.78125-1.5938h-17.188zm1.9375,5.875,9.5312,0,0,1.7812-9.5312,0,0-1.7812z"/>
        <path fill="#ee8900" d="m-10.258-13.93,1.6822,3.4085,3.7615,0.54658-2.7219,2.6532,0.64255,3.7463-3.3644-1.7688-3.3644,1.7688,0.64255-3.7463-2.7219-2.6532,3.7615-0.54658z" transform="matrix(0.53889011,0,0,0.53889011,58.251994,6.1167101)"/>
    </g>
</svg>