<svg xmlns="http://www.w3.org/2000/svg" height="150" viewBox="0 0 200 200" width="150">
    <g transform="matrix(5.7284176,0,0,5.7284176,-43.338724,-39.672815)">
        <path fill="#2883ae" d="m27.375,9.75c-0.729-0.025-1.092,0.37475-1.25,0.59375-0.974-0.447-2.2762-0.6545-3.9062-0.3125-5.232,1.098-5.8945,7.9668-4.9375,9.4688-0.747,0.481-1.055,1.5612-0.75,2.7812,0.233,0.932,1.0428,1.6495,1.8438,1.9375,0.609,1.641,1.538,3.2615,2.75,4.4375l-6.438,1.342c-1.289,0.272-2.4888,1.5175-2.7188,2.8125l-0.875,4.875c-0.12,0.677,0.05775,1.3195,0.46875,1.8125,0.411,0.489,1.0025,0.75,1.6875,0.75h23.5c0.686,0,1.2765-0.26,1.6875-0.75,0.409-0.49,0.59075-1.1375,0.46875-1.8125l-0.875-4.875c-0.229-1.295-1.4288-2.5062-2.7188-2.7812l-6.4375-1.375c1.214-1.176,2.13-2.7995,2.75-4.4375,0.798-0.291,1.6138-1.0085,1.8438-1.9375,0.31-1.229-0.01725-2.3335-0.78125-2.8125v-0.875c0.2388-0.7195,0.40526-1.5849,0.4375-2.5l-2.4062,0.96875,1-3.5312-2.345-2.845c-0.888-0.282-1.66-0.265-2.281-0.063-0.137-0.359,0.281-0.875,0.281-0.875zm0.78125,6.2188c1.774,0.196,2.9825,2.2268,3.4375,3.4688v0.96875c0.064-0.035,0.1225-0.0525,0.1875-0.0625-0.002,0.009,0.003,0.02525,0,0.03125,0.015,0.019,0.0265,0.0038,0.0625-0.03125,0.041,0,0.085-0.013,0.125,0,0.431,0.121,0.6365,0.86325,0.4375,1.6562-0.192,0.771-1.1708,1.2988-1.5938,1.2188-0.565,1.721-1.7055,3.9432-3.3125,5.1562-0.193,0.146-0.38675,0.259-0.59375,0.375-0.292,0.162-0.6185,0.287-0.9375,0.375-0.315,0.086-0.62775,0.15625-0.96875,0.15625-0.347,0-0.68-0.06825-1-0.15625-0.321-0.088-0.6445-0.215-0.9375-0.375-0.208-0.115-0.40075-0.23-0.59375-0.375-1.596-1.2-2.683-3.3922-3.25-5.1562-0.425,0.092-1.43-0.44275-1.625-1.2188-0.199-0.793,0.0065-1.5352,0.4375-1.6562,0.127-0.035,0.242-0.0075,0.375,0.0625v-1.1562c0.002-0.004,0.02925-0.02625,0.03125-0.03125-0.003-0.016-0.02925-0.0435-0.03125-0.0625v-0.40625c0.106-1.004,1.0552-2.9005,6.2812-1.1875,1.799,0.59,2.9078-0.35475,3.4688-1.5938zm-6.0312,13.5c0.852,0.568,1.807,0.90625,2.875,0.90625,1.062,0,2.022-0.33825,2.875-0.90625l1.5312,0.3125c-1.233,1.004-2.754,1.5625-4.375,1.5625-1.604,0-3.144-0.5625-4.375-1.5625l1.4688-0.3125zm-2.6875,0.5625c1.482,1.468,3.4978,2.3125,5.5938,2.3125,2.116,0,4.0958-0.8305,5.5938-2.3125l4.499,0.968c0.889,0.188,1.7472,1.109,1.9062,2l0.75,4.0938h-5.5938v-0.6875c0-0.277-0.224-0.5-0.5-0.5s-0.5,0.223-0.5,0.5v2.8438h-12.375v-2.8438c0-0.277-0.224-0.5-0.5-0.5s-0.5,0.223-0.5,0.5v0.6875h-5.5938l0.72-4.094c0.159-0.893,1.0505-1.813,1.9375-2l4.5625-0.96875zm-7.3438,8.0625,5.7188,0,0,1.1562-4.5625,0c-0.384,0-0.7195-0.14725-0.9375-0.40625-0.172-0.205-0.22275-0.463-0.21875-0.75zm20.094,0,5.7188,0c0.004,0.287-0.04675,0.545-0.21875,0.75-0.218,0.26-0.5515,0.40625-0.9375,0.40625h-4.5625v-1.1562z"/>
        <path fill="#ee8900" d="m35.032,12.582-2.8898-1.9296-3.2279,1.2866,0.94218-3.3447-2.2211-2.6723,3.4721-0.13749,1.8551-2.9382,1.2037,3.2597,3.3676,0.85638-2.7282,2.1521z" transform="matrix(0.80191679,0,0,0.80191679,8.7011253,6.2319517)"/>
    </g>
</svg>

