<svg xmlns="http://www.w3.org/2000/svg" viewBox="0 0 200 200" width="150" height="150">
    <g fill="#ee8900" transform="matrix(3.0240929,0,0,3.0240929,-56.536824,-32.938166)">
	    <path d="m66.193,53.198c0,1.149-0.932,2.083-2.082,2.083s-2.084-0.934-2.084-2.083c0-1.15,0.934-2.083,2.084-2.083s2.082,0.933,2.082,2.083zm11.9-25.669c0.829,0,1.5-0.672,1.5-1.5s-0.671-1.5-1.5-1.5h-8.038l0.969,3h7.069zm6.738,24.01v3.842c0,1.989-1.308,3.66-3.101,4.251v13.134c0,1.104-0.896,2-2,2h-56.063c-1.104,0-2-0.896-2-2v-39.882c0-0.122,0.015-0.24,0.036-0.356-0.023-0.214-0.038-0.431-0.038-0.65,0-3.328,2.653-7.348,5.947-7.348h2.448c-0.103,0.103-0.205,0.204-0.307,0.307-0.729,0.729-0.76,1.914-0.109,2.693h-2.032c-1.174,0-2.415,1.737-2.813,3.354h54.931c1.104,0,2,0.896,2,2v14.404c1.793,0.591,3.101,2.262,3.101,4.251zm-1,0c0-1.927-1.567-3.494-3.494-3.494h-17.581c-2.951,0-5.343,2.393-5.343,5.344,0,2.95,2.392,5.344,5.343,5.344h18.518c1.471-0.412,2.558-1.75,2.558-3.352v-3.842zm-13.081-22.062-2.705-6.981-18.017,6.981h20.722zm-39.258,0h5.116l29.686-11.502-1.696-4.381c-0.313-0.806-1.221-1.206-2.027-0.894l-31.214,12.093c-0.807,0.313-1.207,1.22-0.895,2.026l1.03,2.658z"/>
    </g>
</svg>

